# xmcd
#
# Track frame offsets: 
#        150
#        11261
#        48778
#        70267
#        117364
#        127408
#        162802
#        184351
#        234722
#        249054
#        259145
#        274797
#        285100
#        300090
#
# Disc length: 4407 seconds
#
# Revision: 1
# Processed by: cddbd v1.5.2PL0 Copyright (c) Steve Scherf et al.
# Submitted via: ExactAudioCopy v0.99pb5
#
DISCID=b511350e
DTITLE=Reader's Digest - Sternstunden der Archäologie CD4
DYEAR=2006
DGENRE=Hearbook
TTITLE0=Eine Maya-Stadt mitten im Dschungel 1
TTITLE1=Eine Maya-Stadt mitten im Dschungel 2
TTITLE2=Eine Maya-Stadt mitten im Dschungel 3
TTITLE3=Eine Maya-Stadt mitten im Dschungel 4
TTITLE4=Die Suche nach der 'Titanic' 1
TTITLE5=Die Suche nach der 'Titanic' 2
TTITLE6=Die Suche nach der 'Titanic' 3
TTITLE7=Die Suche nach der 'Titanic' 4
TTITLE8=Die Himmelsscheibe von Nebra 1
TTITLE9=Die Himmelsscheibe von Nebra 2
TTITLE10=Die Himmelsscheibe von Nebra 3
TTITLE11=Die Himmelsscheibe von Nebra 4
TTITLE12=Die Himmelsscheibe von Nebra 5
TTITLE13=Die Himmelsscheibe von Nebra 6
EXTD=Reader's Digest Hörbuch - Sprecher: Anja Buczkowski, Achim Höppne
EXTD=r
EXTT0=
EXTT1=
EXTT2=
EXTT3=
EXTT4=
EXTT5=
EXTT6=
EXTT7=
EXTT8=
EXTT9=
EXTT10=
EXTT11=
EXTT12=
EXTT13=
PLAYORDER=
